<svg width="20" height="20" viewBox="0 0 20 20" fill="none" xmlns="http://www.w3.org/2000/svg">
<g clip-path="url(#clip0_507_15)">
<path d="M18.3637 9.72045C18.0954 9.4435 17.7932 9.33337 17.486 9.33337C16.9022 9.33337 16.3 9.73084 15.8758 10.1362C15.8686 10.143 13.8286 11.8222 13.1351 12.501C13.0093 12.624 12.7643 12.7237 12.5878 12.7237C11.9104 13.4773 10.9254 13.953 9.83016 13.953C8.73491 13.953 7.74984 13.4773 7.07247 12.7237H7.01238C6.83586 12.7237 6.58473 12.6306 6.45145 12.5157L3.7249 10.1639C3.30864 9.76647 2.71962 9.34762 2.14838 9.34747C1.89454 9.34747 1.6442 9.43033 1.41405 9.63448C0.608477 10.3487 1.11837 11.2787 1.75719 11.8859C1.77045 11.8981 4.81968 14.7972 4.81968 14.7972C4.81968 14.7972 6.01888 16.0592 6.10426 16.8243V18.6519C6.10426 19.3964 6.71241 20.0001 7.46274 20.0001H12.3674C13.1176 20.0001 13.7259 19.3964 13.7259 18.6519V16.8243C13.8108 16.0592 14.9361 14.7972 14.9361 14.7972L17.9228 11.856C18.4681 11.2993 19.015 10.393 18.3637 9.72045Z" fill="black"/>
<path d="M9.83002 13.3333C11.5181 13.3333 12.8866 11.9901 12.8866 10.3333C12.8866 8.67641 11.5181 7.33325 9.83002 7.33325C8.14191 7.33325 6.77344 8.67641 6.77344 10.3333C6.77344 11.9901 8.14191 13.3333 9.83002 13.3333Z" fill="black"/>
<path d="M2.52829 8.33334C3.37233 8.33334 4.05658 7.58714 4.05658 6.66667C4.05658 5.7462 3.37233 5 2.52829 5C1.68424 5 1 5.7462 1 6.66667C1 7.58714 1.68424 8.33334 2.52829 8.33334Z" fill="black"/>
<path d="M9.99972 3.00001C10.8438 3.00001 11.528 2.32843 11.528 1.5C11.528 0.671574 10.8438 0 9.99972 0C9.15568 0 8.47144 0.671574 8.47144 1.5C8.47144 2.32843 9.15568 3.00001 9.99972 3.00001Z" fill="black"/>
<path d="M5.58415 1.66675C5.30699 1.66675 5.02634 1.74073 4.77411 1.89584C4.05892 2.33545 3.84199 3.26035 4.29032 3.96289C4.58054 4.41759 5.07775 4.66676 5.5863 4.66676C5.86346 4.66676 6.14397 4.59278 6.39626 4.43766C7.11146 3.99805 7.32832 3.07315 6.88006 2.37061C6.58984 1.91591 6.0927 1.66675 5.58415 1.66675Z" fill="black"/>
<path d="M13.6036 4.4375C13.856 4.59277 14.1365 4.66676 14.4139 4.66676C14.9223 4.66676 15.4193 4.41771 15.7096 3.96316C16.1582 3.26073 15.9414 2.33577 15.2265 1.89601C14.9741 1.74072 14.6934 1.66675 14.4161 1.66675C13.9076 1.66675 13.4106 1.91578 13.1203 2.37035C12.6719 3.07277 12.8886 3.99759 13.6036 4.4375Z" fill="black"/>
<path d="M17.3019 8.33334C18.2397 8.33334 19 7.58714 19 6.66667C19 5.7462 18.2397 5 17.3019 5C16.364 5 15.6038 5.7462 15.6038 6.66667C15.6038 7.58714 16.364 8.33334 17.3019 8.33334Z" fill="black"/>
</g>
<defs>
<clipPath id="clip0_507_15">
<rect width="20" height="20" fill="white"/>
</clipPath>
</defs>
</svg>
