<svg width="20" height="20" viewBox="0 0 20 20" fill="none" xmlns="http://www.w3.org/2000/svg">
<path d="M20 16.3334C20 17.25 19.2501 18 18.3335 18H1.66651C0.749877 18 0 17.2501 0 16.3334V3.66648C0 2.74986 0.749877 2 1.66651 2H18.3335C19.2501 2 20 2.74986 20 3.66648V16.3334ZM1.66651 3.33327C1.48949 3.33327 1.33344 3.4899 1.33344 3.66633V16.3332C1.33344 16.5102 1.48963 16.6663 1.66651 16.6663H18.3335C18.5099 16.6663 18.667 16.5102 18.667 16.3332V3.66633C18.667 3.4899 18.5099 3.33327 18.3335 3.33327H1.66651ZM4.6669 8.66651C3.56269 8.66651 2.6663 7.77072 2.6663 6.66682C2.6663 5.56292 3.56269 4.66669 4.6669 4.66669C5.77067 4.66669 6.66618 5.56292 6.66618 6.66682C6.66618 7.77072 5.77081 8.66651 4.6669 8.66651ZM17.3331 15.3335H2.6663V13.333L5.9999 10.0004L7.6664 11.6664L12.9997 6.33376L17.3331 10.6671V15.3335Z" fill="black"/>
</svg>
