<svg width="20" height="20" viewBox="0 0 20 20" fill="none" xmlns="http://www.w3.org/2000/svg">
<path d="M8.42534 17.983C8.42534 16.4064 8.42534 14.8383 8.42534 13.2362C9.48463 13.2362 10.5185 13.2362 11.5778 13.2362C11.5778 14.8128 11.5778 16.3893 11.5778 17.9915C11.6795 17.9915 11.7558 18 11.832 18C13.315 18 14.8065 18 16.2895 18C16.798 18 17.1454 17.6932 17.1454 17.1734C17.1539 15.2218 17.1539 13.2703 17.1454 11.3188C17.1454 11.2165 17.0607 11.0887 16.976 11.012C15.6285 9.88709 14.2811 8.77071 12.9252 7.64581C12.0269 6.9044 11.1287 6.15446 10.2304 5.41305C10.1626 5.35339 10.0863 5.30227 10.0016 5.22557C9.46768 5.66871 8.9338 6.11185 8.39991 6.55499C6.63725 8.01225 4.88306 9.46951 3.12039 10.9268C2.93396 11.0802 2.84922 11.2421 2.84922 11.4892C2.85769 13.3385 2.85769 15.1963 2.84922 17.0455C2.84922 17.3779 2.93396 17.6762 3.23056 17.8636C3.34073 17.9318 3.47632 17.9915 3.59496 17.9915C5.17119 18 6.74742 17.9915 8.32364 17.9915C8.35754 18.0085 8.38296 17.9915 8.42534 17.983ZM6.06099 4.8506C6.06099 4.06657 6.06099 3.34221 6.06099 2.62637C6.06099 2.16618 5.95083 2.05539 5.49321 2.05539C4.78137 2.05539 4.06952 2.05539 3.35768 2.05539C2.99328 2.05539 2.86616 2.18322 2.86616 2.57523C2.86616 4.11771 2.85769 5.66871 2.86616 7.21118C2.86616 7.4498 2.79837 7.6032 2.61193 7.7566C1.83229 8.38722 1.0696 9.03489 0.298437 9.67404C-0.0829084 9.98935 -0.0913817 10.1427 0.230643 10.5177C0.425553 10.7478 0.611988 10.9779 0.806898 11.208C1.04418 11.4892 1.23909 11.5063 1.52722 11.2676C4.25596 8.98376 6.97622 6.69134 9.70496 4.39894C9.79818 4.32224 9.89987 4.24554 10.01 4.15179C10.6202 4.66311 11.2303 5.17444 11.8405 5.68576C14.0523 7.54355 16.2641 9.40134 18.4759 11.2591C18.7725 11.5148 18.959 11.4977 19.2132 11.1995C19.425 10.9523 19.6284 10.7052 19.8318 10.4581C20.0691 10.1683 20.0606 9.98083 19.7725 9.73369C18.5352 8.69401 17.298 7.66286 16.0607 6.62317C14.4082 5.24261 12.7642 3.86205 11.1117 2.47297C10.366 1.84234 9.63717 1.84234 8.88295 2.47297C7.99314 3.2229 7.10334 3.96432 6.22201 4.70573C6.18811 4.74834 6.14574 4.78242 6.06099 4.8506Z" fill="black"/>
</svg>
